<svg width="30" height="30" viewBox="0 0 30 30" fill="none" xmlns="http://www.w3.org/2000/svg">
<g clip-path="url(#clip0_117_264)">
<path d="M6.29339 14.7982L10.4507 16.748C10.6115 16.8226 10.8013 16.8173 10.9551 16.7326L14.6555 14.7082L12.4157 16.576C12.3016 16.6713 12.2365 16.8073 12.2365 16.9506V21.5C12.2365 21.9799 12.8875 22.1819 13.1928 21.8006L14.9898 19.5522L19.4341 21.9339C19.7457 22.1026 20.1452 21.9333 20.2175 21.598L22.9893 8.59974C23.0722 8.20912 22.6592 7.8905 22.2753 8.03581L6.3373 13.885C5.90946 14.0423 5.88183 14.6056 6.29339 14.7982ZM21.7567 9.29964L19.3207 20.7228L15.1096 18.4657C14.88 18.3424 14.5847 18.3971 14.4217 18.5997L13.299 20.0042V17.1752L19.3561 12.1253C19.8357 11.726 19.2846 11.0161 18.737 11.3187L10.6689 15.7328L7.84114 14.4069L21.7567 9.29964Z" fill="#F5F5F5"/>
<circle cx="15" cy="15" r="14.5" stroke="#F5F5F5"/>
</g>
<defs>
<clipPath id="clip0_117_264">
<rect width="30" height="30" fill="white"/>
</clipPath>
</defs>
</svg>
